<svg width="19" height="20" viewBox="0 0 19 20" fill="none" xmlns="http://www.w3.org/2000/svg">
<g id="linkedin-in 1">
<path id="Vector" d="M4.25295 17.4999H0.313839V5.81626H4.25295V17.4999ZM2.28127 4.22251C1.02167 4.22251 0 3.26157 0 2.10142C9.01566e-09 1.54415 0.240348 1.00971 0.668169 0.615663C1.09599 0.221617 1.67624 0.000244141 2.28127 0.000244141C2.8863 0.000244141 3.46655 0.221617 3.89438 0.615663C4.3222 1.00971 4.56254 1.54415 4.56254 2.10142C4.56254 3.26157 3.54045 4.22251 2.28127 4.22251ZM18.9958 17.4999H15.0651V11.8124C15.0651 10.4569 15.0354 8.7186 13.0171 8.7186C10.9691 8.7186 10.6553 10.1913 10.6553 11.7147V17.4999H6.7204V5.81626H10.4983V7.41001H10.5535C11.0794 6.49204 12.364 5.52329 14.2805 5.52329C18.2671 5.52329 19 7.94126 19 11.0819V17.4999H18.9958Z" fill="#6F6F6F"/>
</g>
</svg>
