<svg width="20" height="19" viewBox="0 0 20 19" fill="none" xmlns="http://www.w3.org/2000/svg">
<g id="twitter 1">
<path id="Vector" d="M17.9441 5.62997C17.9568 5.79875 17.9568 5.96756 17.9568 6.13633C17.9568 11.2841 13.8325 17.2156 6.29441 17.2156C3.97207 17.2156 1.81473 16.5766 0 15.4676C0.329961 15.5037 0.647187 15.5158 0.989844 15.5158C2.90605 15.5158 4.67004 14.9009 6.07867 13.8521C4.27664 13.8159 2.76648 12.6947 2.24617 11.1516C2.5 11.1877 2.75379 11.2118 3.02031 11.2118C3.38832 11.2118 3.75637 11.1636 4.09898 11.0792C2.22082 10.7175 0.812148 9.15028 0.812148 7.25752V7.20931C1.35781 7.49865 1.99238 7.67949 2.66492 7.70357C1.56086 7.00432 0.837539 5.81081 0.837539 4.46055C0.837539 3.73721 1.04055 3.07414 1.3959 2.49546C3.41367 4.85839 6.44668 6.40151 9.84766 6.57032C9.78422 6.28098 9.74613 5.97962 9.74613 5.67822C9.74613 3.53225 11.5736 1.78418 13.8451 1.78418C15.0253 1.78418 16.0913 2.25436 16.84 3.01387C17.7664 2.8451 18.6547 2.51958 19.4416 2.07352C19.137 2.97773 18.4898 3.73725 17.6395 4.21945C18.4644 4.1351 19.2639 3.91804 19.9999 3.61668C19.4416 4.38822 18.7436 5.07537 17.9441 5.62997Z" fill="#6F6F6F"/>
</g>
</svg>
